<?xml version="1.0" standalone="no"?><svg xmlns="http://www.w3.org/2000/svg" viewBox="0 0 1440 320"><path fill="#0099ff" fill-opacity="1" d="M0,96L21.8,106.7C43.6,117,87,139,131,138.7C174.5,139,218,117,262,90.7C305.5,64,349,32,393,37.3C436.4,43,480,85,524,122.7C567.3,160,611,192,655,197.3C698.2,203,742,181,785,170.7C829.1,160,873,160,916,160C960,160,1004,160,1047,176C1090.9,192,1135,224,1178,240C1221.8,256,1265,256,1309,240C1352.7,224,1396,192,1418,176L1440,160L1440,320L1418.2,320C1396.4,320,1353,320,1309,320C1265.5,320,1222,320,1178,320C1134.5,320,1091,320,1047,320C1003.6,320,960,320,916,320C872.7,320,829,320,785,320C741.8,320,698,320,655,320C610.9,320,567,320,524,320C480,320,436,320,393,320C349.1,320,305,320,262,320C218.2,320,175,320,131,320C87.3,320,44,320,22,320L0,320Z"></path></svg>